<svg width="240" height="240" viewBox="0 0 240 240" fill="none" xmlns="http://www.w3.org/2000/svg">
<path d="M38.5161 144V94H24.0667C20.1024 96.6007 16.0639 99.2747 12.0996 101.949V114.33C15.8046 111.802 19.7319 109.238 23.3257 106.784H23.9926V144H38.5161Z" fill="white"/>
<path d="M76.8997 144L91.7937 94H75.7512L68.193 129.018H67.5261L59.7457 94H42.6657L57.8561 144H76.8997Z" fill="white"/>
<path d="M120.248 144V94H105.799C101.834 96.6007 97.7958 99.2747 93.8315 101.949V114.33C97.5364 111.802 101.464 109.238 105.058 106.784H105.724V144H120.248Z" fill="white"/>
<path d="M141.922 144V115.282H142.589L151.851 135.062H159.743L168.894 115.282H169.561V144H182.714V94H167.561L156.112 117.956H155.631L144.219 94H128.955V144H141.922Z" fill="white"/>
<path d="M227.1 132.791H206.129V124.073H225.729V113.89H206.129V105.209H227.1V94H191.643V144H227.1V132.791Z" fill="white"/>
</svg>
