<svg width="120" height="240" viewBox="0 0 120 240" fill="none" xmlns="http://www.w3.org/2000/svg">
<path d="M92.8908 87.9245L65.1092 73.1321C61.916 71.6226 58.084 71.6226 55.2101 73.1321L27.1092 87.6226C23.916 89.434 22 92.4528 22 95.7736V151.019C22 154.943 24.2353 158.566 27.7479 160.377L40.521 167.321C42.1176 168.226 43.7143 168.226 45.3109 167.321C46.9076 166.415 47.5462 165.208 47.5462 163.396V146.491C47.5462 146.189 47.8655 145.887 48.1849 145.887H48.5042L54.8908 149.208C58.084 150.717 61.916 150.717 64.7899 149.208L92.8908 134.415C96.084 132.604 98 129.585 98 126.264V96.0755C98 92.7547 96.084 89.434 92.8908 87.9245ZM40.2017 157.358C40.2017 157.962 39.563 158.566 38.9244 158.566H38.2857L30.6219 154.34C29.9832 154.038 29.3445 153.132 29.3445 152.528V95.7736C29.3445 94.8679 29.6639 94.2642 30.6219 93.9623L39.2437 89.434H39.563C39.8824 89.434 40.2017 89.7358 40.2017 90.0377V157.358ZM47.8655 85.5094C47.8655 85.2075 48.1849 84.6038 48.5042 84.6038L59.042 78.8679C59.3613 78.566 59.6807 78.566 60.3193 78.566C60.6387 78.566 61.2773 78.566 61.5966 78.8679C61.5966 79.1698 70.2185 83.6981 70.2185 83.6981C70.2185 83.6981 70.5378 84 70.5378 84.3019C70.5378 84.6038 70.5378 84.6038 70.2185 84.9057L48.8235 96.3774H48.5042C48.1849 96.3774 47.8655 96.0755 47.8655 95.7736V85.5094ZM72.1345 137.132C72.1345 137.434 71.8151 138.038 71.4958 138.038L60.958 143.774C60.6387 143.774 60.3193 144.075 60 144.075C59.6807 144.075 59.042 144.075 58.7227 143.774L48.1849 138.038C47.8655 137.736 47.5462 137.434 47.5462 137.132V127.17C47.5462 126.868 47.8655 126.566 48.1849 126.566H48.5042L58.7227 132C59.042 132.302 59.3613 132.302 60 132.302C60.3193 132.302 60.958 132.302 61.2773 132L71.4958 126.566H71.8151C72.1345 126.566 72.4538 126.868 72.4538 127.17V137.132H72.1345ZM72.1345 117.208C72.1345 117.509 71.8151 117.811 71.4958 118.113L60.958 123.547C60.6387 123.849 60 123.849 59.6807 123.849C59.3613 123.849 58.7227 123.849 58.4034 123.547L47.8655 117.811C47.5462 117.509 47.2269 117.208 47.2269 116.906V104.83C47.2269 104.528 47.5462 103.925 47.8655 103.925L58.4034 98.1887C58.7227 97.8868 59.042 97.8868 59.6807 97.8868C60 97.8868 60.6387 97.8868 60.958 98.1887L71.4958 103.925C71.8151 104.226 72.1345 104.528 72.1345 104.83V117.208ZM90.6555 126.566C90.6555 127.472 90.3361 128.075 89.3782 128.377L80.7563 132.906H80.437C80.1176 132.906 79.7983 132.604 79.7983 132.302V109.057C79.7983 108.755 80.1176 108.453 80.437 108.453H80.7563L90.0168 113.283C90.3361 113.585 90.6555 113.887 90.6555 114.189V126.566ZM90.6555 105.132C90.6555 105.434 90.3361 105.736 90.0168 105.736H89.6975L68.6219 94.566C68.3025 94.2642 68.3025 93.9623 68.3025 93.6604L68.6219 93.3585L77.8824 88.2264C78.2017 87.9245 78.8403 87.9245 79.1597 88.2264L89.3782 93.6604C90.0168 93.9623 90.6555 94.8679 90.6555 95.4717V105.132Z" fill="white"/>
</svg>
