<svg width="240" height="240" viewBox="0 0 240 240" fill="none" xmlns="http://www.w3.org/2000/svg">
<path d="M59.7659 95.7381C72.2007 95.7381 81.8403 105.072 82.8284 117.997L78.1465 117.915C75.4676 117.879 73.0564 116.252 72.0059 113.792C70.1457 109.469 65.7923 104.837 59.1435 104.837C52.4945 104.837 46.2284 110.779 45.6318 118.359C45.5962 118.739 45.5784 119.138 45.5784 119.581C45.5784 120.051 45.5962 120.476 45.6318 120.892C46.2193 128.598 52.174 134.414 59.464 134.414C65.0892 134.414 70.1005 130.914 72.2011 125.496C73.1892 122.963 75.7262 121.254 78.5122 121.254H82.9003C82.393 133.771 72.5573 143.523 60.3186 143.523C54.702 143.523 49.6271 141.605 46.396 138.249L45.7284 137.553V153.924H36.0625V96.9235H45.0258V102.333L45.6934 101.626C49.3161 97.7729 54.1851 95.7381 59.7659 95.7381Z" fill="white"/>
<path d="M161.978 95.7381C174.546 95.7381 184.256 105.271 185.075 118.423C185.111 118.956 185.139 119.544 185.139 120.222C185.139 120.43 185.138 120.621 185.12 120.82C184.817 133.555 174.893 143.512 162.53 143.513C156.833 143.513 151.893 141.64 148.599 138.239L147.932 137.553V153.914H138.274V121.245H142.574C145.351 121.246 147.879 122.936 148.866 125.451C151.003 130.895 156.022 134.414 161.665 134.414C168.982 134.414 174.901 128.599 175.436 120.884C175.462 120.513 175.471 120.132 175.471 119.744C175.471 119.31 175.445 118.857 175.409 118.369C174.742 111.721 169.303 104.848 161.355 104.847C156.077 104.847 151.073 108.455 148.901 113.827C147.878 116.369 145.403 118.008 142.617 118.008H138.274V96.9235H147.237V102.333L147.905 101.626C151.528 97.7729 156.397 95.7381 161.978 95.7381Z" fill="white"/>
<path d="M90.5118 121.245C93.2884 121.246 95.7541 122.845 96.7777 125.323C99.0385 130.759 104.282 134.414 109.827 134.414C115.719 134.413 120.998 130.923 123.285 125.533C124.389 122.928 126.827 121.245 129.498 121.245H134.1C133.298 132.262 124.059 143.512 109.747 143.513C97.5883 143.513 86.8161 133.356 86.0148 121.245H90.5118Z" fill="white"/>
<path d="M198.952 133.183H203.936V142.997H198.952L198.455 142.985C197.962 142.959 197.478 142.896 197.007 142.798C196.692 142.732 196.383 142.653 196.08 142.557C193.964 141.888 192.159 140.498 190.944 138.671C190.771 138.409 190.608 138.139 190.459 137.861C189.79 136.61 189.382 135.194 189.307 133.689L189.295 133.183V85.9243H198.952V133.183Z" fill="white"/>
<path d="M110.369 95.7381C116.751 95.7382 122.992 98.3875 127.487 103C131.367 106.989 133.698 112.309 134.081 118.008H129.444L129.453 117.997C126.818 117.997 124.414 116.334 123.328 113.765C121.041 108.338 115.807 104.837 109.977 104.837C104.147 104.837 99.1083 108.447 96.8208 113.81C95.7258 116.352 93.3318 117.997 90.7152 117.997H86.0333C86.9146 105.072 97.0891 95.7381 110.369 95.7381Z" fill="white"/>
</svg>
