<svg width="400" height="240" viewBox="0 0 400 240" fill="none" xmlns="http://www.w3.org/2000/svg">
<path d="M62.8227 90.0068H51.2048V103.437H44.9902V113.74H51.1609V134.061C51.1609 147.316 59.1181 149.105 66.8999 149.105H72.6212V138.615H69.103C64.7189 138.615 62.8337 136.848 62.8337 132.701V113.74H72.698V103.437H62.8337L62.8227 90.0068Z" fill="white"/>
<path d="M117.92 134.777H105.414L105.294 135.04C103.858 138.178 101.063 139.704 96.7554 139.704C90.5628 139.704 86.4855 136.412 85.2252 130.3H118.72V129.894C118.808 128.742 118.895 127.546 118.895 126.273C118.895 112.525 109.382 102.551 96.2732 102.551C83.1647 102.551 73.64 112.525 73.64 126.273C73.64 140.022 83.1647 150.007 96.2732 150.007C107.234 150.007 115.037 144.663 117.723 135.359L117.92 134.777ZM85.3128 121.797C86.5733 116.014 90.4533 112.843 96.2732 112.843C102.093 112.843 106.006 116.014 107.233 121.797H85.3128Z" fill="white"/>
<path d="M162.605 149.109L144.619 125.529L159.723 103.441H146.603L137.912 116.894H138.197L129.516 103.441H116.386L131.489 125.529L113.514 149.109H126.634L138.197 133.605H137.912L149.475 149.109H162.605Z" fill="white"/>
<path d="M218.854 102.548C216.427 102.491 214.024 103.033 211.857 104.126C209.689 105.218 207.824 106.828 206.425 108.814V103.437H194.796V138.615H184.109C179.725 138.615 177.851 136.848 177.851 132.701V113.74H188.57V103.437H177.829V90.0068H166.222V103.437H161.027V113.74H166.222V134.061C166.222 147.316 174.179 149.105 181.961 149.105H206.425V124.032C206.425 116.922 209.713 112.841 215.368 112.841C221.024 112.841 224.312 116.922 224.312 124.032V149.105H235.941V121.882C235.941 109.955 229.397 102.548 218.854 102.548Z" fill="white"/>
<path d="M262.193 102.551C248.712 102.551 238.935 112.525 238.935 126.273C238.935 140.022 248.712 150.007 262.193 150.007C275.674 150.007 285.452 140.022 285.452 126.273C285.452 112.525 275.664 102.551 262.193 102.551ZM273.822 126.273C273.822 133.954 269.043 139.254 262.193 139.254C255.342 139.254 250.563 133.921 250.563 126.273C250.563 118.626 255.342 113.315 262.193 113.315C269.043 113.315 273.822 118.626 273.822 126.273Z" fill="white"/>
<path d="M339.615 103.441L332.109 136.611L324.677 103.792L324.589 103.441H310.198L302.68 136.611L295.249 103.792L295.171 103.441H283.948L295.271 148.769L295.359 149.109H309.75L317.432 115.829L324.963 148.758L325.039 149.109H339.429L350.697 104.001L350.839 103.441H339.615Z" fill="white"/>
</svg>
