<svg width="240" height="240" viewBox="0 0 240 240" fill="none" xmlns="http://www.w3.org/2000/svg">
<path d="M51 82C55.4183 82 59 85.5817 59 90V118.738L73.334 104.357C76.4531 101.228 81.5192 101.221 84.6484 104.34C87.7769 107.459 87.7847 112.523 84.666 115.652L74.3281 126.023L88.4492 145.268C91.0631 148.83 90.2946 153.835 86.7324 156.449C83.1703 159.063 78.1647 158.295 75.5508 154.732L62.6562 137.16L59 140.516V150.004C58.9997 154.422 55.4181 158.004 51 158.004C46.5819 158.004 43.0003 154.422 43 150.004V90C43 85.5817 46.5817 82 51 82Z" fill="white"/>
<path d="M109 102C113.418 102 117 105.582 117 110V150.004C117 154.422 113.418 158.004 109 158.004C104.582 158.004 101 154.422 101 150.004V110C101 105.582 104.582 102 109 102Z" fill="white"/>
<path d="M137 82C141.418 82 145 85.5817 145 90V118.738L159.334 104.357C162.453 101.228 167.519 101.221 170.648 104.34C173.777 107.459 173.785 112.523 170.666 115.652L160.328 126.023L174.449 145.268C177.063 148.83 176.295 153.835 172.732 156.449C169.17 159.063 164.165 158.295 161.551 154.732L148.656 137.16L145 140.516V150.004C145 154.422 141.418 158.004 137 158.004C132.582 158.004 129 154.422 129 150.004V90C129 85.5817 132.582 82 137 82Z" fill="white"/>
<path d="M188 120C192.418 120 196 123.582 196 128C196 132.418 192.418 136 188 136C183.582 136 180 132.418 180 128C180 123.582 183.582 120 188 120Z" fill="white"/>
</svg>
