<svg width="240" height="240" viewBox="0 0 240 240" fill="none" xmlns="http://www.w3.org/2000/svg">
<path d="M52.8549 79C41.4744 79 29.6974 87.3869 28.9493 101.885C28.9391 102.073 28.9673 102.261 29.0325 102.439C29.0976 102.616 29.1982 102.778 29.3282 102.915C29.4582 103.052 29.6149 103.161 29.7887 103.236C29.9624 103.311 30.1497 103.35 30.3391 103.351H37.7511C38.119 103.351 38.4719 103.497 38.732 103.756C38.9922 104.015 39.1385 104.366 39.1388 104.732V142.42C39.1391 142.785 39.2848 143.136 39.5441 143.395C39.8033 143.654 40.1551 143.8 40.5223 143.801H48.0174C48.3855 143.801 48.7386 143.656 48.999 143.397C49.2594 143.138 49.4058 142.786 49.4061 142.42V126.413C50.5468 126.578 51.6979 126.662 52.8507 126.664C66.0523 126.664 76.792 115.973 76.792 102.833C76.792 89.692 66.0565 79 52.8549 79ZM52.6655 116.439C51.5662 116.432 50.4723 116.286 49.4103 116.003V104.692C49.4103 104.325 49.264 103.973 49.0036 103.714C48.7431 103.455 48.3899 103.309 48.0216 103.309H40.6412C40.4502 103.309 40.2612 103.27 40.0861 103.194C39.911 103.118 39.7537 103.007 39.6239 102.868C39.4941 102.728 39.3948 102.563 39.3321 102.384C39.2695 102.204 39.2448 102.014 39.2598 101.824C39.9962 93.7409 46.5465 89.2238 52.8601 89.2238C60.3983 89.2238 66.531 95.3286 66.531 102.832C66.5257 111.003 59.8544 116.439 52.6655 116.439Z" fill="white"/>
<path d="M97.2057 102.355C85.4339 102.355 75.8546 111.885 75.8546 123.609C75.8546 135.332 85.4339 144.863 97.2057 144.863C108.978 144.863 118.563 135.332 118.563 123.609C118.563 111.885 108.979 102.355 97.2057 102.355ZM97.2057 134.639C95.0139 134.639 92.8714 133.992 91.049 132.78C89.2267 131.567 87.8065 129.844 86.968 127.829C86.1295 125.813 85.9104 123.594 86.3385 121.455C86.7666 119.315 87.8225 117.349 89.3728 115.807C90.9231 114.265 92.898 113.215 95.0479 112.79C97.1977 112.365 99.4259 112.584 101.45 113.42C103.475 114.256 105.205 115.671 106.422 117.485C107.639 119.3 108.288 121.433 108.286 123.615C108.282 126.539 107.113 129.342 105.036 131.409C102.959 133.476 100.143 134.639 97.2057 134.642V134.639Z" fill="white"/>
<path d="M164.037 123.615C164.037 118.741 161.626 114.365 158.994 111.342H162.65C162.832 111.342 163.013 111.306 163.181 111.236C163.35 111.166 163.503 111.064 163.632 110.936C163.761 110.807 163.863 110.655 163.932 110.487C164.002 110.319 164.038 110.139 164.037 109.957V103.739C164.038 103.373 163.892 103.021 163.632 102.761C163.373 102.502 163.02 102.356 162.652 102.355H142.688C130.915 102.355 121.337 111.885 121.337 123.609C121.337 135.332 130.911 144.863 142.688 144.863C146.373 144.862 149.994 143.911 153.201 142.104C153.863 144.009 153.998 146.056 153.591 148.03C152.842 151.761 150.263 154.964 146.688 156.304C144.83 157.007 142.816 157.2 140.857 156.863C138.898 156.526 137.066 155.672 135.552 154.388C133.404 152.564 132.054 149.815 131.738 146.994C131.705 146.652 131.546 146.334 131.292 146.102C131.037 145.87 130.705 145.74 130.36 145.737H122.841C122.65 145.737 122.461 145.777 122.285 145.852C122.11 145.928 121.952 146.039 121.822 146.178C121.692 146.317 121.591 146.481 121.527 146.66C121.463 146.839 121.437 147.03 121.45 147.219C121.822 152.588 124.227 157.617 128.179 161.288C132.132 164.96 137.337 167.001 142.743 167C154.516 167 164.094 157.469 164.094 145.746C164.094 141.747 162.909 138.223 160.676 135.051C162.87 131.637 164.037 127.668 164.037 123.615ZM142.549 134.642C140.358 134.642 138.215 133.995 136.393 132.783C134.571 131.571 133.151 129.848 132.312 127.832C131.473 125.817 131.254 123.599 131.682 121.459C132.11 119.319 133.165 117.354 134.715 115.811C136.265 114.269 138.24 113.219 140.39 112.793C142.539 112.368 144.767 112.587 146.792 113.422C148.817 114.258 150.547 115.672 151.764 117.486C152.981 119.301 153.631 121.433 153.63 123.615C153.626 126.539 152.457 129.342 150.38 131.409C148.303 133.476 145.487 134.639 142.549 134.642Z" fill="white"/>
<path d="M188.226 102.355C176.453 102.355 166.879 111.893 166.879 123.615C166.879 135.338 176.453 144.869 188.23 144.869C200.007 144.869 209.58 135.339 209.58 123.615C209.58 111.892 199.998 102.355 188.226 102.355ZM188.226 134.639C186.034 134.639 183.891 133.992 182.069 132.78C180.246 131.568 178.826 129.845 177.987 127.829C177.148 125.813 176.929 123.595 177.357 121.455C177.785 119.315 178.841 117.35 180.391 115.807C181.941 114.265 183.916 113.215 186.066 112.79C188.216 112.365 190.444 112.584 192.469 113.42C194.494 114.256 196.224 115.67 197.441 117.485C198.657 119.3 199.306 121.433 199.305 123.615C199.301 126.539 198.132 129.342 196.055 131.409C193.978 133.476 191.163 134.639 188.226 134.642V134.639Z" fill="white"/>
</svg>
